# Alias OBJ Model File
# Exported from SketchUp, (c) 2000-2012 Trimble Navigation Limited
# File units = meters

mtllib test.mtl

g Mesh1 Model

usemtl _1
v 0 0 -0
vt 0 0
vn -1 0 -0
v 0 1 -0
vt 0 1
v 0 1 -1
vt -1 1
v 0 0 -1
vt -1 0
f 1/1/1 2/2/1 3/3/1 4/4/1 

vn 0 0 1
v 1 0 -0
vt 1 0
v 1 1 -0
vt 1 1
f 2/2/2 1/1/2 5/5/2 6/6/2 

vn 0 -1 -0
v 1 0 -1
f 4/2/3 7/3/3 5/4/3 1/1/3 

v 1 1 -1
vn 9.02389e-17 -9.02389e-17 -1
vt -1 9.02389e-17
vt 9.02389e-17 9.02389e-17
vt 9.02389e-17 1
f 8/3/4 7/7/4 4/8/4 3/9/4 

vn 1 0 -0
f 8/6/5 6/2/5 5/1/5 7/5/5 

vn 0 1 -0
f 6/5/6 8/6/6 3/2/6 2/1/6 

